name ./resultDataOpenSim/trcMotMarkerGrf/sub09/grf-14-06.mot
datacolumns 19
datarows 10
range 1.46800000 1.50400000
endheader

                time	     ground_force_vx	     ground_force_vy	     ground_force_vz	     ground_force_px	     ground_force_py	     ground_force_pz	   l_ground_force_vx	   l_ground_force_vy	   l_ground_force_vz	   l_ground_force_px	   l_ground_force_py	   l_ground_force_pz	     ground_torque_x	     ground_torque_y	     ground_torque_z	   l_ground_torque_x	   l_ground_torque_y	   l_ground_torque_z	
          1.46800000	        -40.13477166	        416.61349496	         -1.13948713	          1.09870606	          0.00000000	          0.05158887	          0.00000000	          0.00000000	          0.00000000	          0.00000000	          0.00000000	          0.00000000	          0.00000000	          2.16532305	          0.00000000	          0.00000000	          0.00000000	          0.00000000	
          1.47200000	        -39.15085045	        415.16253164	         -1.81318510	          1.09913421	          0.00000000	          0.05135906	          0.00000000	          0.00000000	          0.00000000	          0.00000000	          0.00000000	          0.00000000	          0.00000000	          2.17558437	          0.00000000	          0.00000000	          0.00000000	          0.00000000	
          1.47600000	        -36.80349266	        413.88509295	         -3.43543610	          1.09932137	          0.00000000	          0.05121077	          0.00000000	          0.00000000	          0.00000000	          0.00000000	          0.00000000	          0.00000000	          0.00000000	          2.05819266	          0.00000000	          0.00000000	          0.00000000	          0.00000000	
          1.48000000	        -33.42000530	        412.78039466	         -5.62193268	          1.09933421	          0.00000000	          0.05111951	          0.00000000	          0.00000000	          0.00000000	          0.00000000	          0.00000000	          0.00000000	          0.00000000	          1.85712062	          0.00000000	          0.00000000	          0.00000000	          0.00000000	
          1.48400000	        -29.60400013	        411.88993117	         -7.90277486	          1.09926138	          0.00000000	          0.05105278	          0.00000000	          0.00000000	          0.00000000	          0.00000000	          0.00000000	          0.00000000	          0.00000000	          1.63239471	          0.00000000	          0.00000000	          0.00000000	          0.00000000	
          1.48800000	        -26.05921074	        411.28760327	         -9.80360055	          1.09919057	          0.00000000	          0.05098193	          0.00000000	          0.00000000	          0.00000000	          0.00000000	          0.00000000	          0.00000000	          0.00000000	          1.44750162	          0.00000000	          0.00000000	          0.00000000	          0.00000000	
          1.49200000	        -23.38839271	        411.04354965	        -10.92856995	          1.09920882	          0.00000000	          0.05087879	          0.00000000	          0.00000000	          0.00000000	          0.00000000	          0.00000000	          0.00000000	          0.00000000	          1.35671719	          0.00000000	          0.00000000	          0.00000000	          0.00000000	
          1.49600000	        -21.93011790	        411.20598243	        -11.03528435	          1.09938308	          0.00000000	          0.05072437	          0.00000000	          0.00000000	          0.00000000	          0.00000000	          0.00000000	          0.00000000	          0.00000000	          1.39470089	          0.00000000	          0.00000000	          0.00000000	          0.00000000	
          1.50000000	        -21.67685059	        411.82361508	        -10.07011329	          1.09971927	          0.00000000	          0.05051512	          0.00000000	          0.00000000	          0.00000000	          0.00000000	          0.00000000	          0.00000000	          0.00000000	          1.57012593	          0.00000000	          0.00000000	          0.00000000	          0.00000000	
          1.50400000	        -22.28981762	        412.96021223	         -8.16208928	          1.10015826	          0.00000000	          0.05025400	          0.00000000	          0.00000000	          0.00000000	          0.00000000	          0.00000000	          0.00000000	          0.00000000	          1.86445587	          0.00000000	          0.00000000	          0.00000000	          0.00000000	
